<?xml version="1.0" encoding="UTF-8"?>
<svg id="Layer_2" data-name="Layer 2" xmlns="http://www.w3.org/2000/svg" viewBox="0 0 871.07 353.35">
  <defs>
    <style>
      .cls-1 {
        fill: #e8dfc0;
      }

      .cls-2 {
        stroke: #e8dfc0;
        stroke-miterlimit: 3.5;
        stroke-width: 4.24px;
      }

      .cls-2, .cls-3 {
        fill: none;
      }

      .cls-4 {
        fill: #1c3e2c;
      }

      .cls-3 {
        stroke: #1c3e2c;
        stroke-miterlimit: 3.5;
        stroke-width: 11.29px;
      }
    </style>
  </defs>
  <g id="Layer_1-2" data-name="Layer 1">
    <rect class="cls-3" x="52.43" y="52.43" width="248.49" height="248.49" rx="11.29" ry="11.29" transform="translate(-73.18 176.68) rotate(-45)"/>
    <rect class="cls-1" x="91.97" y="91.97" width="169.42" height="169.42" rx="5.65" ry="5.65" transform="translate(-73.18 176.68) rotate(-45)"/>
    <circle class="cls-4" cx="176.68" cy="176.68" r="28.24"/>
    <line class="cls-2" x1="300.92" y1="41.14" x2="300.92" y2="312.22"/>
    <path class="cls-4" d="M386.89,175.36c0-10.71,1.6-19.69,4.8-26.96,2.39-5.36,5.65-10.16,9.78-14.41,4.14-4.25,8.67-7.41,13.59-9.46,6.55-2.77,14.1-4.16,22.66-4.16,15.49,0,27.88,4.8,37.17,14.41,9.3,9.61,13.95,22.97,13.95,40.08s-4.61,30.25-13.84,39.83c-9.22,9.58-21.56,14.38-36.99,14.38s-28.06-4.77-37.28-14.31c-9.22-9.53-13.83-22.67-13.83-39.39ZM408.76,174.64c0,11.9,2.75,20.92,8.24,27.07s12.47,9.21,20.94,9.21,15.4-3.04,20.83-9.14c5.42-6.09,8.14-15.23,8.14-27.42s-2.64-21.03-7.92-26.96c-5.28-5.92-12.29-8.89-21.04-8.89s-15.8,3-21.15,9c-5.36,6-8.03,15.05-8.03,27.14Z"/>
    <path class="cls-4" d="M550.56,227.26v-105.1h44.67c11.23,0,19.39.94,24.49,2.83,5.09,1.89,9.16,5.25,12.22,10.07,3.06,4.83,4.59,10.35,4.59,16.56,0,7.89-2.32,14.4-6.96,19.54-4.64,5.14-11.57,8.38-20.79,9.71,4.59,2.68,8.38,5.62,11.36,8.82,2.99,3.2,7.02,8.89,12.08,17.06l12.83,20.51h-25.38l-15.34-22.87c-5.45-8.18-9.18-13.32-11.18-15.45-2.01-2.12-4.14-3.58-6.38-4.37-2.25-.79-5.81-1.18-10.68-1.18h-4.3v43.88h-21.22ZM571.78,166.61h15.7c10.18,0,16.54-.43,19.07-1.29,2.53-.86,4.52-2.34,5.95-4.44,1.43-2.1,2.15-4.73,2.15-7.89,0-3.53-.95-6.39-2.83-8.57-1.89-2.17-4.55-3.55-7.99-4.12-1.72-.24-6.88-.36-15.49-.36h-16.56v26.67Z"/>
    <path class="cls-4" d="M700.95,227.26v-105.1h21.22v105.1h-21.22Z"/>
    <path class="cls-4" d="M787.69,227.26v-105.1h20.65l43.02,70.19v-70.19h19.72v105.1h-21.29l-42.37-68.54v68.54h-19.72Z"/>
  </g>
</svg>