<?xml version="1.0" encoding="UTF-8"?>
<svg id="Layer_2" data-name="Layer 2" xmlns="http://www.w3.org/2000/svg" viewBox="0 0 455.54 38.89">
  <defs>
    <style>
      .cls-1 {
        fill: #F2F0EA;
      }
    </style>
  </defs>
  <g id="Layer_15" data-name="Layer 15">
    <g>
      <path class="cls-1" d="M5.56,11.11H0V0h5.56v11.11ZM11.11,16.67h-5.56v-5.56h5.56v5.56ZM11.11,38.89v-22.22h5.56v22.22h-5.56ZM16.67,16.67v-5.56h5.56v5.56h-5.56ZM22.22,11.11V0h5.56v11.11h-5.56Z"/>
      <path class="cls-1" d="M65.56,38.89v-11.11h-16.67v11.11h-5.56V11.11h5.56v11.11h16.67v-11.11h5.56v27.78h-5.56ZM48.89,11.11v-5.56h5.56v5.56h-5.56ZM60,5.56h-5.56V0h5.56v5.56ZM65.56,11.11h-5.56v-5.56h5.56v5.56Z"/>
      <path class="cls-1" d="M92.22,16.67h-5.56V5.56h5.56v11.11ZM92.22,33.33h-5.56v-5.56h5.56v5.56ZM108.89,5.56h-16.67V0h16.67v5.56ZM108.89,22.22h-16.67v-5.56h16.67v5.56ZM103.33,33.33h5.56v5.56h-16.67v-5.56h11.11ZM108.89,11.11v-5.56h5.56v5.56h-5.56ZM108.89,33.33v-11.11h5.56v11.11h-5.56Z"/>
      <path class="cls-1" d="M135.55,16.67h-5.56V5.56h5.56v11.11ZM135.55,33.33h-5.56v-5.56h5.56v5.56ZM152.22,5.56h-16.67V0h16.67v5.56ZM152.22,22.22h-16.67v-5.56h16.67v5.56ZM146.66,33.33h5.56v5.56h-16.67v-5.56h11.11ZM152.22,11.11v-5.56h5.56v5.56h-5.56ZM152.22,33.33v-11.11h5.56v11.11h-5.56Z"/>
      <path class="cls-1" d="M201.1,33.33h5.56v5.56h-33.33V0h33.33v5.56h-27.78v11.11h16.67v5.56h-16.67v11.11h22.22Z"/>
      <path class="cls-1" d="M222.22,38.89V0h22.22v5.56h5.56v16.67h-5.56V5.56h-16.67v16.67h16.67v5.56h-16.67v11.11h-5.56ZM244.44,38.89v-11.11h5.56v11.11h-5.56Z"/>
      <path class="cls-1" d="M297.77,38.89V0h5.56v11.11h5.56v5.56h5.56v5.56h-5.56v-5.56h-5.56v22.22h-5.56ZM319.99,38.89v-11.11h-5.56v-5.56h5.56V0h5.56v38.89h-5.56Z"/>
      <path class="cls-1" d="M363.32,38.89v-11.11h-16.67v11.11h-5.56V11.11h5.56v11.11h16.67v-11.11h5.56v27.78h-5.56ZM346.66,11.11v-5.56h5.56v5.56h-5.56ZM357.77,5.56h-5.56V0h5.56v5.56ZM363.32,11.11h-5.56v-5.56h5.56v5.56Z"/>
      <path class="cls-1" d="M389.99,16.67h-5.56V5.56h5.56v11.11ZM389.99,33.33h-5.56v-5.56h5.56v5.56ZM406.65,5.56h-16.67V0h16.67v5.56ZM406.65,22.22h-16.67v-5.56h16.67v5.56ZM401.1,33.33h5.56v5.56h-16.67v-5.56h11.11ZM406.65,11.11v-5.56h5.56v5.56h-5.56ZM406.65,33.33v-11.11h5.56v11.11h-5.56Z"/>
      <path class="cls-1" d="M427.77,38.89V0h22.22v5.56h5.56v16.67h-5.56V5.56h-16.67v16.67h16.67v5.56h-16.67v11.11h-5.56ZM449.99,38.89v-11.11h5.56v11.11h-5.56Z"/>
    </g>
  </g>
</svg>