<?xml version="1.0" encoding="UTF-8"?>
<svg id="Layer_2" data-name="Layer 2" xmlns="http://www.w3.org/2000/svg" viewBox="0 0 103.79 131.14">
  <defs>
    <style>
      .cls-1 {
        fill: #1e2a38;
      }
    </style>
  </defs>
  <g id="Layer_3" data-name="Layer 3">
    <g>
      <polygon class="cls-1" points="75.29 37.38 74.43 37.05 74.2 37.13 75.29 37.38"/>
      <path class="cls-1" d="M79.16,41.15c.14-1.06-1.81-1.38-2.45-2.35v-.27s-.86.21-.86.21c1.1.8,2.75,1.59,3.31,2.41Z"/>
      <path class="cls-1" d="M79.91,44.21c.03.08.03.11.05.16.11.08.25.21.47.43.07-.4.74.25-.52-.59Z"/>
      <path class="cls-1" d="M79.96,44.36c-.52-.41.14.5,0,0h0Z"/>
      <path class="cls-1" d="M82.39,46.21l-.86-.33c0,.27.56.82.24.74.79.45.78.18.62-.41Z"/>
      <path class="cls-1" d="M83.44,46.25l-.43-.2c0,.12.07.22.43.2Z"/>
      <path class="cls-1" d="M82.62,45.85c.23-.15-.08-.08-.51-.2l.9.41c0-.19.18-.42-.4-.21Z"/>
      <path class="cls-1" d="M81.79,45.19c-.24-.47-.64-.97.22-.63-1.34-.99-1.56-.36-.22.63Z"/>
      <path class="cls-1" d="M80.01,40.66l-.32-.62-.62-.14c.31.07.79,1,.95.77Z"/>
      <path class="cls-1" d="M86.19,50.1c.17-.11.11-.57.22-.8l-.63-.25c.17.31.56.81.41,1.06Z"/>
      <path class="cls-1" d="M86.41,49.3l.94.38c-.62-.59-.84-.57-.94-.38Z"/>
      <polygon class="cls-1" points="84.21 45.6 82.57 45.09 84.45 45.79 84.21 45.6"/>
      <path class="cls-1" d="M88.25,52.49l1.17.13c-.27-.1-.88-.14-1.17-.13Z"/>
      <path class="cls-1" d="M90.84,54.05c-.54.01.02.83-.45.72.54.38,1.18.52,1.74.63-.51-.23-.92-.64-1.29-1.35Z"/>
      <path class="cls-1" d="M88.74,51.72l.06-.65c-.09-.08-.18-.17-.28-.25-.02.14-.11.46.22.9Z"/>
      <path class="cls-1" d="M88.81,51.07c.3.28.51.47.6.56-.08-.07-.25-.25-.6-.58v.02Z"/>
      <path class="cls-1" d="M86.96,47.2c-.55.01-.22.63-1.16.42.62.14,1.72.67,1.16-.42Z"/>
      <path class="cls-1" d="M87.85,49.18c-.08.12-.07.4-.38.33l1.07.43-.69-.76Z"/>
      <polygon class="cls-1" points="89.03 50.14 88.54 49.94 88.8 50.22 89.03 50.14"/>
      <path class="cls-1" d="M92.05,54.13c.49.11.86.41,1.3.74-.37-.46-.79-.9-1.23-1.27-.17.07-.56.14-.07.53Z"/>
      <path class="cls-1" d="M90.51,52.6l.09.04c-.02-.07-.04-.12-.09-.04Z"/>
      <polygon class="cls-1" points="96.87 57.78 96.79 57.83 96.81 57.86 96.87 57.78"/>
      <path class="cls-1" d="M92.12,53.46c-.26-.37-.55-.44-.85-.48.28.17.57.38.85.62.08-.03.11-.07,0-.14Z"/>
      <path class="cls-1" d="M94.34,56.44c-.1-.23-.23-.47-.38-.72.06.27.23.77.38.72Z"/>
      <path class="cls-1" d="M90.62,52.85l-.07-.03c.03.18.06.13.07.03Z"/>
      <path class="cls-1" d="M91.27,52.98c-.23-.14-.46-.26-.67-.34.02.06.02.14.02.21.22.09.44.11.65.13Z"/>
      <path class="cls-1" d="M97.88,57.73h0c.19-.21-.51-1.28.28-1.19.98.55.63.63.37,1.15.72-.66,1.01,1.18,1.81.8l-.32-1.13c.14-.08.37.31.5-.08-.23.03-.45-.18-.57-.49-.46-.22-.84-.54-1.02-1.08-1.03-.4-1.48,1.36-2.05,2.08.2-.11.33-.26,1.02-.05Z"/>
      <path class="cls-1" d="M96.12,58.04c.31-.05.52-.11.67-.2-.17-.19-.76-.74-.96-.92l.16.04-.35-.22c.23.33.63.94.49,1.31Z"/>
      <path class="cls-1" d="M93.95,55.66h0s0,0,0,0c-.02-.11-.01-.16.03-.06,0,0,.03.01.04.02.06-.05.13-.07.2-.1.36.46-.02.17-.2.1-.02.02-.05.03-.07.04h0s1.68,1.07,1.68,1.07c-.27-.33-.67-.66-1.41-1.22.6-.2,1.5.28,1.42-.56-.95-.77-.94-.22-1.64-.52,1.57,1.18-.62-.14.25,1.02-.35-.18-.63-.39-.9-.59.22.28.43.57.61.85v-.06Z"/>
      <path class="cls-1" d="M88.51,47c.02.08-.01.1-.03.14.14.03.21.03.03-.14Z"/>
      <path class="cls-1" d="M88.13,47.6c.38.52.66,1.36.69,1.67.12-.46.18-.85.09-1.49-.24.1-1.23-.49-.43-.64-.31-.08-1-.35-.5.42l.15.04Z"/>
      <path class="cls-1" d="M88.82,49.27s-.02.08-.03.13c.03,0,.04-.05.03-.13Z"/>
      <path class="cls-1" d="M92.78,51.55l-.15.24c-.63-.69-.71-.3-.94-.21l1.41.87-.33-.9Z"/>
      <path class="cls-1" d="M96.63,58.06c-.19.09-.36.19-.54.29.28-.11.6-.19.95-.24-.15-.02-.29-.04-.42-.05Z"/>
      <path class="cls-1" d="M96.89,58.66l-.5.07c.1.03.2.06.3.11.07-.05.13-.11.2-.18Z"/>
      <path class="cls-1" d="M48.03,129.28l-.48.14c.23-.04.37-.09.48-.14Z"/>
      <path class="cls-1" d="M51.52,129.31l.09-.24c-.16.13-.23.23-.09.24Z"/>
      <path class="cls-1" d="M96.94,110.44c-.79,1.06-1.25,1.76-.08,1.19-.1-.49-.04-.87.08-1.19Z"/>
      <path class="cls-1" d="M80.09,126.43l.21.16c.17-.19.33-.36.47-.52-.21.11-.44.23-.68.35Z"/>
      <path class="cls-1" d="M78.67,128.33c.21.12.51.24.93.35l-.93-.35Z"/>
      <path class="cls-1" d="M28.98,129.86l-.56.55c.88,0,.49-.28.56-.55Z"/>
      <path class="cls-1" d="M97.08,79.94c-.21.61-.3,1.09-.33,1.51.31-.73.78-1.32.33-1.51Z"/>
      <path class="cls-1" d="M49.4,123.52c-.29.1-.42.21-.41.33.3-.09.47-.2.41-.33Z"/>
      <path class="cls-1" d="M96.76,83.2c.05-.11.08-.21.13-.32-.09-.44-.16-.89-.13-1.43-.23.54-.38,1.16,0,1.75Z"/>
      <path class="cls-1" d="M.4,82.71c.02-.05.04-.11.06-.16-.07-.01-.08.05-.06.16Z"/>
      <path class="cls-1" d="M96.65,66.69c-.04-.45-.06-.07,0,0h0Z"/>
      <path class="cls-1" d="M100.14,87.7v.04c.1-.13.08-.11,0-.04Z"/>
      <path class="cls-1" d="M96.9,66.01c-.07.17-.12.37-.16.58.04-.09.09-.27.16-.58Z"/>
      <path class="cls-1" d="M96.64,66.1c.02-.16.04-.28.05-.39-.09-.06-.15,0-.05.39Z"/>
      <path class="cls-1" d="M96.68,67.32c0-.26.02-.5.06-.73-.04.09-.07.13-.09.1,0,.13.01.32.03.63Z"/>
      <path class="cls-1" d="M1.86,119.72s.03-.06.05-.1c-.23-.46-.19-.26-.05.1Z"/>
      <path class="cls-1" d="M102.58,122.58l-.03-.08s-.01.07-.02.1l.05-.02Z"/>
      <path class="cls-1" d="M102.99,125.24c-.68-1.41-.59-1.86-.45-2.65-.52.19-1.04.32-1.57.4.67.6,1.34,1.35,2.02,2.25Z"/>
      <path class="cls-1" d="M5.71,56.85l-2.21,2.16v.23c-.51.45-1.03.93-1.57.86,1.06,1.2-1.57,3.16-.05,5.12-.25.43-.39-.37-.66-.14.51.5.62,1.1.39,2.21l-.13-.13c.13,3.13-.38,4.47-.72,7.99l.59-.26c-.08.75-.27.91-.41,1.27.9.87.05-2.12,1.04-1.33-1.21,1-.02,5.33-1.39,6,0,1.16.69-.34.68.82l-.37.31.48.29c-.08.76-.54,1.15-.86,1.18.04-.18-.09-.53-.11-.72-.44.99.15,2.79,0,3.12l.23-1.12c.35,3.17-.14,7.04.61,10.11l.28-.23c.52,2.34-.31,1.87-.07,4.44l-.07-.09c.28.51.42,1.2.39,1.9-.33-.65-.64,1.22-1,.37.55,2.54.44,1.25,1.48,2.93l-.46.39c.42.57.64.62.76,1.9-.4-1.05-.71.82-1.23-.36-1.02,2.69,1.02,4-.46,5.23,1.28,1.24.71-2.33.99-1.64.42-.58.96,1.02.83,1.87-.03.86-1.64,1.46-1.62,3.63,0-.22-.09-.23-.09-.45-.33.81.44,1.59-.09,2.58.78.56-.04,1.29.95,1.45l-.23-1.98c.26,1.12,1.42,2.18.86,4.03-.2-.14-.46-.7-.61-1.07-.29.54.19,1.04-.11,1.61-.99-.16-.22-2.41-.97-3.62-.42.58.72,2.28-.36,1.67,1.37,1.07-.15,2.94.87,4.29l-.59.03c.09.35.37.97.36,1.61-.26-.25-.51-.55-.77-.88.58,1.59-.36,3.73-.28,5.37.22,0,.45-.03.7-.06-.26,0-.49,0-.63,0,.02-2.78.5-1.01,1.14-2.87.14.63.18,1.12.16,1.56,1.98.09.23,1.67,5.18,1.43-.84.08-2.71-.36-1.43-.63.95.12,2.26.35,2.93.66.46-.03.69,0,1-.15.16-.3-.98-.56-.29-.82.74.72,1.07-.29,2.03-.53v.6c2.49.39.67-1.26,2.9-.79l-.95.84,1.17-.22-.24.69c1.27-.51,1.66-.38,2.91-.18-.29-.43.16-1.1,1.26-1.11.75.36-.42.57,1.14.49-.35.38-.74.85-1.42.3-.07.2-.35.38-.42.57.81.41,2.03.09,2.59.09-.22-.02-.48-.06-.61-.14l2.26-.84c.36.23.07.41-.21.59.46-.06.77-.34,1.45-.39-.18.49-.13,1-1.09,1.23l2.15-.54c.14.21,1.11.59.82.77,1.19.29,2.93-.95,4.51-.57,1.54-.72,3.23.72,5.15-.22l1,.88c1.38-.2-1.35-1.11.95-1.44,1.63-.28.61.75,1.18,1,.81-.44,2.22-1.35,3.71-.63-.49.17-.88.04-1.35.1l1.14.49c-1.38.8-2.37.53-1.3,1.21.16-1.7,4.43-.17,4.59-1.87l.75.36c-.22-.02-.25.08-.46.07,1.46.81,1.09-1.23,2.97-.99.66.13,1.11.38.67.58.16-.16,2.68-.64,1.36-.12l2.23-.14-.02.05c.32-.27,1.04-.68,1.39-.85.57.24-.28.18-.14.39l1.23-.41c.5.44-.52.87-1.37.81,1.15,1.7,1.02-.43,3.51.56l-1.17.22c.75.97,1.66.61,2.98,1.22-.31-.31-2.64-1.52-1.3-1.94.38.13.88.19,1.6-.15,0,.61.71.46,1.6.42l-.06.8c.96-.23.88-.64,1.44-1,1.06.08,1.29.7,1.54,1.22,1.7.13-1.18-.99.84-1.15,1.42.31,2.41-.02,4.11-.5.99.28-.17.49.18.72l.88-.64c.22.02.15.21.11.31.74-.25.06-.8,1.23-1.02.31-.88,2.39,1.29,3.83.29.35.23-.17.49-.06.8,1.98-.66,1.7-.48,3.32-1.36l1.38.53c-1.02-.6.28-1.31,1.42-1.9-.36-.29-.67-.54-.88-.67l1.82-.43c.22.13.04.41-.26.74.12-.07.24-.13.33-.19.65.3.31.76-.15,1.21-.21-.16-.44-.33-.65-.49-.45.49-.87,1.03-.77,1.49.12-.09.34-.17.6-.22-.36.46-.04.42.41.03l.41.89.1-.35,2.38.56c1.7-.9,3.18-2.22,5.88-2.59-.67.65-.14,1.07-.18,1.84-.74-.82-2.09.35-3.49.18.73.09.57.46.38.59l2.49-.75c-.06.63.53.48,1.18.74-.49-1.25,1.86-.83,2.87-1.22.06.42-.18.85-1.42.75,1.37.94,1.76-1.47,3.11-.67-.3.01-.47-.05-.58.16.33-.28,2.5-.22,2.22.29h-.43c1.73.1,4.72.08,6.44-.19-.17-1.46-.45-2.54-.86-2.94.14.05,1.28,1.18,1.5,1.54-1.19-2.67-2.39-4.42-3.58-5.36,1.15.37,3.21-1.13,3.61,1.11.15-.85.26-1.49-.04-2.42-.13.33-1.32.81-1.41.37,1.02-1.22.54-.85,1.41-2.36-.2.49-1.63-.05-1.58-.83.21.12,1.42-.06,1.56.22l-1.41-1.92c.25.48,1.19.08,1.59-.35-.28.2.03-1.66-.11-2.17l-.33.81c.21-2.17-1.98-2.14-1.91-4.3.29.26,1.79.64,1.97-.45-.72-.5-3.47-2.22-4.02-4.13l.41-.37-.47-1.46c1.09.91,3.37,3.46,4.26,4.86.33-.81.49-.23.45-1.44.39-.43.59.66.61,1.02l.25-2.83c-.84.13-.84-2.16-1.54-2.06l.87,3.07c-1.1.57-4.25-5.5-.46-3.44-.29-.26-.55-1.9-.35-2.09l.45.85c.32-1.12-1.12-1.82-.31-3.16.05-.46,1.08-1.38.59-1.46-.96.75-3.93.9-4.65.4.06-.16.92-2.43,1.39-2.96.75-.76,1.79,1.14,2.44.5-.23-.03-.51-.45-.6-.62.2-.49.71.2.61-.86-.85-.18.07-2.15-.72-.5-.24-1.03.18-1.1.14-2.31-.55.39-1.88-1.09-2.12-2.13.22.06.5-.17.63-.28.08-2.12.46-3.26.47-5.23.21-.18.46-1.14.82-.73-.15-.28-.44-.54-.46-1.15.74-1.18.11,1.36,1,.46-.5-.08-.68-1.58-.99-2.44-.77.27-.15,2.01.16,2.88-.91.58-3.98-4.33-2.12-4.57.26-2.39-3.48-6.21.74-5.46.25,1.34-.43,2.05-.4,2.96l.32-1.12c.22.42.39,1.32.2,1.8.6-.85.12-5.21.67-7.59-.23-.42-.46-1.15-.73-.81l.09.75c-.54.69-.75-1.42-1-.46-.38-1.01-.98-2.14-.67-3.56l.77-.27c-.22.03-.46.93-.22,1.33-.34-.59,1.04-2.18.03-2.83l-.53,1c-.39-1.01-1.2-2.27-.96-3.53-.76.57.09.29-.8,1.18,1.1-.78-.05,3.22,1.11,1.98-1.03.92-.44,1.59-1.31,2.79.25-.04.48-.43.36.63.07.05.17.16.22.23,0,.03-.01.04-.02.07l.03-.06s.05.05.01-.02c.11-.25.24-.46.38-.54.58.53.56,2.21.86,2.77-.12.63-.29-.26-.56.08l.45.85c-.56.08-.93,1.67-1.26.19.15,1.19-.64,2.78-.23,3.86-.12.63.62,1.59.18,1.04l.35,2.09-.14.02c-.07,2.06.93,4.24-.08,6.59.14.69.32,1.41.16,2.57l-.49.23c.17.89-.49,2.67.02,3.05-1.31.96-.29,4.32-.52,5.88l.64.06c-.04,1.08.14,2.11.4,3.45l.56-.08c.46,1.15-.4,2.96-.34,4.79-.21-.12-.16-.59-.03-.91-1.27,2.18.92,4.6,0,6.57.2.49.13.85,0,1.19,0-.05-.01-.09-.03-.12.02.31-.21.58-.31.89.14-.21.25-.4.3-.58.01.38.08.96.22,1.52l-.6.24s.01.08.02.13c-.22.55.28.45.74.15.1.28.22.54.36.75-.97.45.33,1.48-.71,2.1.51.38.38,2.84,1.45,3.14-.14.02-.2.18-.21-.12-.12.63-.24,1.26.06,1.82l-.77.27,1.03,1.37c-.47.78-.74.7-1.33.3.95,1.27.37.88,1.24,2.44l-.5-.4c.01.26.34.94.4,1.32-2.74-1.18-6.44-.32-9.28-1.13.68,1.46-1.62-.65-1.76.48-.2-.34-.69-.54-.12-.84-1.78.34-2.68-.55-3.91.41-.2-.35.38-.51.2-.71-.54.4-1.27-.03-.21-.35-1.82.06-2.01,1.12-2.14,2.12-.92-.47-1.38-.41-2.05.25-.32-.33-.86-.67.27-.79-.64-.05-3.89-.48-3.95.32-.2-.2-.89-.06-1.06.03-1.43-.05-1.55-.12-2.96-.04l.39.13c-.55.97-1.17.22-2.3.33l.03-.1c-2.59-.7-1.12.33-3.68-.46.66,2.34-1.97-.15-3.61.33l.54.34c-.81.44-2.27-1.76-3.08-1.92-.18-.11.28-.18.53-.26-2.13-.76-.28.79-1.87.97.08-2.86-3.13.46-5.25-.59,1.24,2.24-3.45-.65-4.18.69-.14-.09-.2-.18-.2-.26-.86.27-2.81.44-3.33,1-.8-2.07-5.38,1.01-5.36-.9l-2.66.1.07-.2c-1.7-.13-2.3.33-2.9.79-.39-.13-.11-.31-.07-.41-2.48-.39-2.73-.3-4.81.65l-.22-.62c-.56.36-3.59-.97-6.03-.25.02-.07.07-.19.27-.28-2.74.73-6.56-1.72-7.57.54l-1.81.56c2.34.18-.35.98.61,1.36-.92.13-2.38-.68-1.25-.8l.18.11c.42-1.18-2.91-.42-2.84-1.22-1.65.01-3.83-.03-5.39-.35.13-1.07.3-2.18.29-3.26l-.92.5c-.18-.73.44-3.12.73-.96.52-.56-.43-1.8-.63-1.83.37-2.1,1.07.82,1.09.18l-.07-.88-.11.2c-.56-.54-1.19-2.36-.13-2.8.12-.09.03-2.12.1-2.39l-.72.76c-.36-.84.04-1.78-.78-.91,1.26-1.28.45-7.07.85-7.86-.53-1.18-.52-2.34-.45-3.78-.15.36-.96.57-.86-.67,1.68.45.73-2.27,1.93-3.28-.8.9-.2-3.53-1.33-2.12.14-1.04.63-.06,1.02-.85-.65-2.47.42-5.43.2-8.48-.22-.05-.56.46-.88-.19l1.1-1.61c-.11-.6-1.27-.55-.51-1.65-.55-4.14-.77-12.5.55-18.08,0,0,37.38-35.44,37.38-35.44,5.64-6.15,15.58-4.98,16.19,5.5,0,0,6.68,6.68,6.68,6.68.5.56,8.87-8.82,9.24-8.85.11-.11.11-.28,0-.39l-6.68-6.68c-2.26-1.06-5.32-.36-7.12-2.69-2.33-1.79-1.63-4.86-2.69-7.12C50.88,4.13,37.21-3.49,22.83,1.63c11.32-2.08,24.63,12.67,16.78,22.1-.06.06-33.85,33.06-33.9,33.12ZM97.14,71.64l.03.04c-.24.74-.14.47-.03-.04ZM5.92,114.9l-.16.3c-.17-.67-.02-.48.16-.3ZM55.48,129.21c.38-.69.67-.36,1.23-.16-.33.13-.99.52-1.23.16ZM81.55,127.47c.31-.05.66-.03,1.05.13-.25.2-.62.1-1.05-.13Z"/>
      <path class="cls-1" d="M79.66,128.42c-.09-.1-.12-.21-.14-.33-.13.1-.13.22.14.33Z"/>
      <path class="cls-1" d="M29.09,129.75h-.05s-.04.07-.05.1l.1-.1Z"/>
      <path class="cls-1" d="M102.52,93.8c-.09.31-.2.49-.31.61.15.02.27-.13.31-.61Z"/>
      <path class="cls-1" d="M96.53,62.99c-.03-.47.1-.64.2-.88-.14.02-.34.21-.35-.1l.16.98Z"/>
      <path class="cls-1" d="M97.66,54.59c-.16-.04-.24-.19-.39-.23l-.15.24c.47.38.94.49.54-.01Z"/>
      <path class="cls-1" d="M98.38,61.11c.51-.08.34-.69.24-1.38,0,.04,0,.08,0,.12-.71-.2-.48.53-.24,1.26Z"/>
      <path class="cls-1" d="M98.61,59.57c-.02-.21-.04-.43-.01-.63-.29-.09-.06.26.01.63Z"/>
      <path class="cls-1" d="M97.07,68.18c.13-.33-.65-.2-.44-.39-.65-.36.78,2.17.44.39Z"/>
      <polygon class="cls-1" points="100.06 60.55 99.43 60.8 99.93 61.18 100.06 60.55"/>
      <path class="cls-1" d="M99.6,65.97l.17-1.1c-.11.02-.17-.12-.21-.29-.02.68-.15,1.42.04,1.39Z"/>
      <path class="cls-1" d="M99.56,64.58c.01-.35,0-.69-.1-.88,0,.19.03.6.1.88Z"/>
      <path class="cls-1" d="M100.24,62.05c-.15.2-.17.86-.18,1.1l.18-1.1Z"/>
      <path class="cls-1" d="M99.47,77.75l.18,1.2c.53.28.19-1.49-.18-1.2Z"/>
      <path class="cls-1" d="M101.19,74.13c-.13.32-.27.35-.48.53l.78.04-.3-.56Z"/>
      <path class="cls-1" d="M101.94,77.84c-.21-.12-.39-1.32-.57-.22.22.12.62,1.74.57.22Z"/>
      <polygon class="cls-1" points="100.39 95.64 100.38 95.34 99.11 95.38 100.39 95.64"/>
      <path class="cls-1" d="M103.03,109.91c-.3-.33-.31,1.05-.57.71.32.86.14,1.3.98.91.31-1.42-.79-.34-.4-1.62Z"/>
      <path class="cls-1" d="M102.46,110.62c-.05-.14-.11-.28-.19-.44.08.25.14.36.19.44Z"/>
      <path class="cls-1" d="M59.24,130.68l.07-.19c-.14-.21-.35-.23-.78-.26l.71.46Z"/>
      <polygon class="cls-1" points="46.88 130.08 47.09 130.09 46.69 129.36 46.88 130.08"/>
      <path class="cls-1" d="M36.5,131.01c.42.03.92-.13,1.35-.1-.92.13-1.46-.81-1.35.1Z"/>
    </g>
  </g>
</svg>